MoBL_ARMS_Upper_Limb_Model_OpenSim_states
version=1
nRows=4
nColumns=55
inDegrees=yes

# SIMM Motion File Header:
name MoBL_ARMS_Upper_Limb_Model_OpenSim_states
datacolumns 55
datarows 4
otherdata 1
range 0.40402859 0.41439929
endheader
time	sternoclavicular_r2	sternoclavicular_r3	unrotscap_r3	unrotscap_r2	acromioclavicular_r2	acromioclavicular_r3	acromioclavicular_r1	unrothum_r1	unrothum_r3	unrothum_r2	elv_angle	shoulder_elv	shoulder1_r2	shoulder_rot	elbow_flexion	pro_sup	deviation	flexion	wrist_hand_r1	wrist_hand_r3	sternoclavicular_r2_u	sternoclavicular_r3_u	unrotscap_r3_u	unrotscap_r2_u	acromioclavicular_r2_u	acromioclavicular_r3_u	acromioclavicular_r1_u	unrothum_r1_u	unrothum_r3_u	unrothum_r2_u	elv_angle_u	shoulder_elv_u	shoulder1_r2_u	shoulder_rot_u	elbow_flexion_u	pro_sup_u	deviation_u	flexion_u	wrist_hand_r1_u	wrist_hand_r3_u	SUP.activation	SUP.fiber_length	ECRL.activation	ECRL.fiber_length	ECRB.activation	ECRB.fiber_length	ECU.activation	ECU.fiber_length	FCR.activation	FCR.fiber_length	FCU.activation	FCU.fiber_length	PQ.activation	PQ.fiber_length
      0.40402859	     -4.84001085	      2.05000016	     -2.05000016	      4.84001085	     -0.98000374	      7.92004553	      3.56000596	     -3.56000596	     -7.92004553	      0.98000374	    -50.00000000	     20.00000000	     50.00000000	     20.00000000	     90.00021046	     56.33947264	      0.00000000	     28.27319115	     -0.00000000	     14.13659557	     -0.00000000	      0.00000000	      0.00000000	     -0.00000000	     -0.00000000	     -0.00000000	     -0.00000000	      0.00000000	      0.00000000	     -0.00000000	     -0.00000000	      0.00000000	      0.00000000	      0.00000000	      0.00000000	     -2.85461635	      0.00000000	     26.72593113	     -0.00000000	     13.36296557	      0.01055923	      0.04010449	      0.01055923	      0.06990007	      0.01055923	      0.06722343	      0.01055923	      0.07327342	      0.01055923	      0.04358842	      0.01055923	      0.02866961	      0.01055923	      0.01962232
      0.40778533	     -4.84001085	      2.05000016	     -2.05000016	      4.84001085	     -0.98000374	      7.92004553	      3.56000596	     -3.56000596	     -7.92004553	      0.98000374	    -50.00000000	     20.00000000	     50.00000000	     20.00000000	     90.00021046	     56.32904391	      0.00000000	     28.37259504	     -0.00000000	     14.18629752	     -0.00000000	      0.00000000	      0.00000000	     -0.00000000	     -0.00000000	     -0.00000000	     -0.00000000	      0.00000000	      0.00000000	     -0.00000000	     -0.00000000	      0.00000000	      0.00000000	      0.00000000	      0.00000000	     -2.70155571	      0.00000000	     26.19690963	     -0.00000000	     13.09845482	      0.01053797	      0.04010347	      0.01053797	      0.06991747	      0.01053797	      0.06724277	      0.01053797	      0.07328157	      0.01053797	      0.04355982	      0.01053797	      0.02864226	      0.01053797	      0.01962339
      0.41109231	     -4.84001085	      2.05000016	     -2.05000016	      4.84001085	     -0.98000374	      7.92004553	      3.56000596	     -3.56000596	     -7.92004553	      0.98000374	    -50.00000000	     20.00000000	     50.00000000	     20.00000000	     90.00021046	     56.32033886	      0.00000000	     28.45846898	     -0.00000000	     14.22923449	     -0.00000000	      0.00000000	      0.00000000	     -0.00000000	     -0.00000000	     -0.00000000	     -0.00000000	      0.00000000	      0.00000000	     -0.00000000	     -0.00000000	      0.00000000	      0.00000000	      0.00000000	      0.00000000	     -2.56217195	      0.00000000	     25.73929717	     -0.00000000	     12.86964859	      0.01051993	      0.04010248	      0.01051993	      0.06993251	      0.01051993	      0.06725947	      0.01051993	      0.07328860	      0.01051993	      0.04353512	      0.01051993	      0.02861864	      0.01051993	      0.01962428
      0.41439929	     -4.84001085	      2.05000016	     -2.05000016	      4.84001085	     -0.98000374	      7.92004553	      3.56000596	     -3.56000596	     -7.92004553	      0.98000374	    -50.00000000	     20.00000000	     50.00000000	     20.00000000	     90.00021046	     56.31208103	      0.00000000	     28.54284538	     -0.00000000	     14.27142269	     -0.00000000	      0.00000000	      0.00000000	     -0.00000000	     -0.00000000	     -0.00000000	     -0.00000000	      0.00000000	      0.00000000	     -0.00000000	     -0.00000000	      0.00000000	      0.00000000	      0.00000000	      0.00000000	     -2.43354693	      0.00000000	     25.29160585	     -0.00000000	     12.64580293	      0.01050249	      0.04010165	      0.01050249	      0.06994728	      0.01050249	      0.06727587	      0.01050249	      0.07329551	      0.01050249	      0.04351085	      0.01050249	      0.02859544	      0.01050249	      0.01962513
